<?xml version="1.0" standalone="no"?>
<!DOCTYPE svg PUBLIC "-//W3C//DTD SVG 20010904//EN"
 "http://www.w3.org/TR/2001/REC-SVG-20010904/DTD/svg10.dtd">
<svg version="1.0" xmlns="http://www.w3.org/2000/svg"
 width="512.000000pt" height="512.000000pt" viewBox="0 0 512.000000 512.000000"
 preserveAspectRatio="xMidYMid meet">
<metadata>
Created by potrace 1.14, written by Peter Selinger 2001-2017
</metadata>
<g transform="translate(0.000000,512.000000) scale(0.100000,-0.100000)"
fill="#000000" stroke="none">
<path d="M5100 3951 c-8 -4 -25 -13 -37 -19 -13 -7 -36 -12 -53 -12 -16 0 -30
-4 -30 -9 0 -5 -15 -15 -32 -22 -18 -7 -39 -19 -46 -26 -7 -7 -20 -13 -28 -13
-8 0 -14 -4 -14 -10 0 -5 -7 -7 -15 -4 -8 4 -15 1 -15 -4 0 -6 -10 -14 -22
-18 -13 -4 -29 -15 -36 -25 -7 -11 -25 -19 -39 -19 -15 0 -23 -3 -20 -6 4 -4
-2 -14 -12 -23 -10 -9 -17 -24 -15 -33 1 -12 -4 -18 -17 -18 -10 0 -19 -4 -19
-10 0 -5 -8 -6 -17 -3 -17 7 -17 6 0 -11 21 -22 22 -27 0 -19 -11 4 -14 3 -9
-5 4 -7 2 -12 -3 -12 -6 0 -11 -6 -11 -14 0 -8 -12 -17 -26 -20 -25 -7 -26 -8
-8 -22 18 -14 18 -15 -4 -9 -13 4 -29 1 -37 -5 -8 -7 -15 -9 -15 -5 0 4 -7 2
-15 -5 -9 -7 -18 -10 -22 -7 -9 10 -44 -13 -37 -25 4 -5 1 -14 -6 -18 -8 -5
-15 -19 -17 -31 -2 -13 -9 -27 -16 -31 -9 -6 -9 -8 1 -8 26 0 1 -19 -33 -26
-19 -3 -35 -10 -35 -15 0 -5 -9 -9 -20 -9 -11 0 -20 -5 -20 -11 0 -5 -4 -7
-10 -4 -5 3 -10 1 -10 -5 0 -7 -7 -10 -15 -6 -8 3 -15 1 -15 -4 0 -10 -174 -5
-190 5 -6 4 -10 13 -10 21 0 17 -33 19 -61 3 -15 -8 -32 -6 -66 5 -26 9 -57
16 -69 16 -12 0 -24 4 -26 10 -4 13 -67 20 -74 8 -7 -10 -54 18 -67 39 -7 11
-12 12 -23 2 -8 -6 -17 -9 -21 -5 -3 3 -14 -1 -24 -10 -15 -14 -20 -14 -33 -3
-37 34 -46 38 -72 35 -16 -2 -32 2 -36 8 -5 7 -8 6 -8 -4 0 -13 -1 -13 -11 0
-8 11 -12 12 -16 3 -3 -10 -11 -9 -33 2 -34 17 -60 19 -60 5 0 -6 -11 -3 -25
6 -13 8 -30 12 -36 8 -8 -4 -9 -3 -5 4 9 15 1 15 -24 2 -11 -6 -21 -6 -24 -1
-3 5 -25 7 -48 5 -86 -8 -137 -9 -136 -4 1 17 -4 19 -24 8 -28 -15 -29 -15
-73 -17 l-35 -1 0 -200 0 -200 563 0 c526 0 565 -2 603 -19 98 -44 128 -166
65 -261 -14 -22 -260 -324 -547 -672 -286 -348 -654 -797 -819 -997 -232 -283
-306 -366 -334 -378 -53 -22 -131 -13 -175 21 -74 56 -71 26 -74 659 l-3 567
-557 0 c-519 0 -560 2 -597 19 -78 35 -114 104 -102 192 6 48 -10 26 372 494
548 670 646 793 634 801 -6 3 -30 8 -52 10 -23 2 -69 9 -102 17 -33 7 -79 12
-102 11 -24 -2 -43 1 -43 5 0 3 -8 7 -17 7 -55 1 -218 16 -225 20 -11 7 -204
5 -243 -1 -16 -3 -52 -8 -80 -10 -27 -3 -66 -8 -85 -11 -19 -4 -38 -7 -42 -6
-5 1 -8 -3 -8 -9 0 -5 -4 -7 -10 -4 -11 7 -90 -15 -90 -25 0 -4 -10 -7 -23 -6
-12 1 -38 -4 -57 -12 -55 -22 -247 -119 -278 -140 -15 -10 -52 -29 -82 -41
-30 -13 -61 -30 -68 -39 -6 -9 -12 -13 -12 -10 0 3 -73 -31 -163 -77 l-162
-83 -3 -1561 -2 -1561 2560 0 2560 0 0 1980 c0 1089 -1 1980 -2 1979 -2 0 -10
-4 -18 -8z"/>
<path d="M2238 3292 c-304 -365 -743 -902 -746 -912 -2 -6 164 -10 462 -10
500 0 506 -1 553 -51 43 -47 44 -65 43 -487 0 -270 3 -401 10 -397 5 3 209
250 452 548 243 298 481 590 529 648 l87 106 -467 5 c-490 6 -488 6 -539 52
-56 50 -57 58 -60 384 -2 166 -6 302 -10 303 -4 1 -28 2 -54 3 -25 0 -50 4
-54 9 -4 4 -13 7 -20 7 -7 0 -91 -94 -186 -208z"/>
</g>
</svg>
